<?xml version="1.0" encoding="utf-8"?>
<!-- Generator: Adobe Illustrator 24.1.2, SVG Export Plug-In . SVG Version: 6.00 Build 0)  -->
<svg version="1.1" id="Layer_1" xmlns="http://www.w3.org/2000/svg" xmlns:xlink="http://www.w3.org/1999/xlink" x="0px" y="0px"
	 viewBox="0 0 431.37 195.38" style="enable-background:new 0 0 431.37 195.38;" xml:space="preserve">
<style type="text/css">
	.st0{fill:#001F5B;}
	.st1{fill:#F05123;}
</style>
<g>
	<path class="st0" d="M12.19,13.11v169.22h377.87V13.11H12.19z M384.58,176.85H54.31V18.58h330.27V176.85z"/>
	<path class="st0" d="M418.84,169.14v-0.05c0-0.84-0.25-1.51-0.76-2.01c-0.62-0.62-1.58-0.98-2.97-0.98h-4.09v8.8h2.45v-2.67h1.03
		h0.05l1.78,2.67h2.81l-2.1-3.06C418.13,171.38,418.84,170.49,418.84,169.14z M416.39,169.3c0,0.64-0.48,1.03-1.33,1.03h-1.6v-2.13
		h1.58c0.82,0,1.35,0.34,1.35,1.05V169.3z"/>
	<path class="st0" d="M414.68,162.42c-4.64,0-8.3,3.82-8.3,8.32v0.05c0,4.5,3.61,8.27,8.25,8.27c4.64,0,8.3-3.82,8.3-8.32v-0.05
		C422.93,166.2,419.32,162.42,414.68,162.42z M421.97,170.74c0,4.05-3.15,7.41-7.34,7.41c-4.16,0-7.29-3.31-7.29-7.36v-0.05
		c0-4.05,3.15-7.41,7.34-7.41c4.16,0,7.29,3.31,7.29,7.36V170.74z"/>
</g>
<g>
	<path class="st1" d="M298.63,148.37h14.65V105.4h18.82c3.97,0,7.78-0.79,11.31-2.33c3.53-1.54,6.64-3.65,9.26-6.27
		c2.61-2.61,4.72-5.73,6.27-9.25c1.55-3.54,2.34-7.34,2.34-11.31c0-3.96-0.79-7.77-2.34-11.31c-1.55-3.53-3.66-6.64-6.27-9.25
		c-2.61-2.61-5.72-4.72-9.26-6.27c-3.54-1.55-7.35-2.33-11.31-2.33h-45.97v14.65h12.5V148.37z M313.28,61.71h18.82
		c4.14,0,7.63,1.39,10.38,4.14c2.75,2.75,4.15,6.24,4.15,10.38c0,4.14-1.4,7.62-4.15,10.38c-2.75,2.75-6.24,4.14-10.38,4.14h-18.82
		V61.71z"/>
	<polygon class="st1" points="144.26,103.25 179.35,103.25 179.35,88.6 144.26,88.6 144.26,61.71 192.24,61.71 192.24,47.06 
		129.61,47.06 129.61,148.37 144.26,148.37 	"/>
	<path class="st1" d="M212.61,138.25c6.73,6.95,15.53,10.77,25.69,10.77c0.08,0,0.17-0.01,0.25-0.01c0.08,0,0.17,0.01,0.25,0.01
		c10.17,0,18.96-3.83,25.69-10.77c4.74-4.89,7.1-10.35,8.29-16.94c0.58-3.25,0.88-5.75,1.03-9.62h-14.99
		c-0.26,4.49-0.72,6.87-1.46,9.62c-0.9,3.36-2.23,5.73-4.14,7.87c-3.44,3.83-8.66,6.1-14.43,6.1c-0.09,0-0.17-0.01-0.25-0.01
		c-0.08,0-0.16,0.01-0.25,0.01c-5.77,0-10.99-2.27-14.43-6.1c-1.91-2.14-3.24-4.52-4.14-7.87c-1.37-5.08-1.77-12.42-1.77-24.63
		c0-11.59,0.36-18.45,1.57-23.21c0.9-3.56,2.28-5.95,4.34-8.26c3.44-3.83,8.66-6.09,14.43-6.09c0.09,0,0.17,0.01,0.25,0.01
		c0.08,0,0.16-0.01,0.25-0.01c5.77,0,10.99,2.27,14.43,6.09c2.06,2.31,3.44,4.69,4.34,8.26c0.67,2.63,1.08,4.87,1.31,9.24h14.97
		c-0.13-3.76-0.39-6.12-0.91-9.24c-1.13-6.75-3.48-12.21-8.44-17.33c-6.73-6.95-15.53-10.77-25.69-10.77
		c-0.08,0-0.17,0.01-0.25,0.01c-0.08,0-0.16-0.01-0.25-0.01c-10.17,0-18.96,3.83-25.69,10.77c-4.96,5.12-7.31,10.58-8.44,17.33
		c-1.06,6.34-1.04,13.8-1.04,23.21c0,9.85-0.03,17.84,1.19,24.63C205.5,127.9,207.87,133.36,212.61,138.25z"/>
</g>
</svg>
