<?xml version="1.0" encoding="UTF-8"?>
<svg version="1.1" xmlns="http://www.w3.org/2000/svg" width="783" height="171">
<path d="M0 0 C7.25914088 -0.04659594 14.51824885 -0.08200639 21.77750969 -0.10362434 C25.14925339 -0.11400638 28.52089383 -0.12806184 31.89257812 -0.15087891 C35.77997508 -0.1752828 39.66722761 -0.18651883 43.5546875 -0.1953125 C44.74988007 -0.20563507 45.94507263 -0.21595764 47.17648315 -0.22659302 C67.47872735 -0.22928227 67.47872735 -0.22928227 74.625 6.5390625 C81.0476279 13.54837275 81.5513876 20.86377453 81.30078125 30.015625 C80.70708284 37.88020131 78.52807598 42.91922293 72.8125 48.375 C68.46401749 51.93154033 62.849566 56 57 56 C63.36578114 65.63521557 69.85305499 75.18602626 76.41015625 84.69189453 C77.42638155 86.16723145 78.43969558 87.64458069 79.44921875 89.12451172 C86.03473146 99.2128905 86.03473146 99.2128905 95 107 C98.66974518 107.0951654 98.66974518 107.0951654 102 106 C102.804375 105.814375 103.60875 105.62875 104.4375 105.4375 C105.2109375 105.2209375 105.2109375 105.2209375 106 105 C106.95639466 100.17884699 107.14816321 95.49249696 107.14526367 90.59545898 C107.14862228 89.77356079 107.1519809 88.9516626 107.15544128 88.1048584 C107.16490088 85.40192127 107.16689156 82.69904637 107.16796875 79.99609375 C107.17118368 78.11092605 107.17454794 76.22575861 107.17805481 74.34059143 C107.18403277 70.39575624 107.18589597 66.45094292 107.18530273 62.50610352 C107.18520093 57.45322972 107.1988778 52.40049588 107.21607494 47.3476553 C107.2271933 43.4571722 107.22922203 39.56672302 107.22869301 35.67622566 C107.22987242 33.81311623 107.23429202 31.95000591 107.24202538 30.08691216 C107.25182634 27.48289018 107.24894732 24.87917341 107.24291992 22.27514648 C107.24853943 21.50773636 107.25415894 20.74032623 107.25994873 19.94966125 C107.23604493 15.88406452 106.99234418 12.59084025 105 9 C102.39766377 7.53820131 102.39766377 7.53820131 99.375 6.6875 C98.37210937 6.36136719 97.36921875 6.03523438 96.3359375 5.69921875 C95.56507813 5.46847656 94.79421875 5.23773438 94 5 C94 3.35 94 1.7 94 0 C104.41342925 -0.02312359 114.82685244 -0.04091517 125.24030209 -0.05181217 C130.07516827 -0.05704097 134.91001694 -0.06413854 139.74487305 -0.07543945 C144.4067712 -0.08626847 149.06865246 -0.09227686 153.73056221 -0.09487724 C155.51324288 -0.09673147 157.29592259 -0.10035203 159.07859612 -0.10573006 C161.5666596 -0.11294069 164.05465243 -0.11399093 166.54272461 -0.11352539 C167.28718842 -0.11712067 168.03165222 -0.12071594 168.79867554 -0.12442017 C173.88594784 -0.11405216 173.88594784 -0.11405216 175 1 C175.08748207 2.92667507 175.10697334 4.85651861 175.09765625 6.78515625 C175.09443359 7.95498047 175.09121094 9.12480469 175.08789062 10.33007812 C175.07951172 11.56177734 175.07113281 12.79347656 175.0625 14.0625 C175.05798828 15.29806641 175.05347656 16.53363281 175.04882812 17.80664062 C175.03699608 20.87114117 175.02051173 23.93554721 175 27 C173.02 27 171.04 27 169 27 C168.46890625 26.02417969 167.9378125 25.04835938 167.390625 24.04296875 C166.67754842 22.75755439 165.96398083 21.47241232 165.25 20.1875 C164.72792969 19.22360352 164.72792969 19.22360352 164.1953125 18.24023438 C161.86054213 14.06791325 159.90669821 10.91170236 155.2175293 9.44091797 C150.57554953 8.51793928 145.77821718 8.81529202 141.0625 8.8125 C139.97775391 8.80025391 138.89300781 8.78800781 137.77539062 8.77539062 C136.72673828 8.77345703 135.67808594 8.77152344 134.59765625 8.76953125 C133.64383057 8.76542236 132.69000488 8.76131348 131.70727539 8.75708008 C128.52668741 8.91196221 128.52668741 8.91196221 124 11 C124 23.54 124 36.08 124 49 C127.7125 49.103125 131.425 49.20625 135.25 49.3125 C136.4143457 49.35802002 137.57869141 49.40354004 138.77832031 49.45043945 C144.70902148 49.66621907 144.70902148 49.66621907 149.625 46.75 C150.79769406 44.40461189 151.90874255 42.16920947 152.75 39.6875 C153.1625 38.470625 153.575 37.25375 154 36 C155.65 36 157.3 36 159 36 C159 47.88 159 59.76 159 72 C157.35 71.67 155.7 71.34 154 71 C151.48757573 67.2013889 149.88566296 63.16599956 148 59 C140.08 59 132.16 59 124 59 C124 72.86 124 86.72 124 101 C129.77612469 103.88806234 132.85609378 104.68135332 139 105 C139.78503906 105.04125 140.57007813 105.0825 141.37890625 105.125 C148.69125447 105.31279707 157.15685798 105.30353466 163.5546875 101.46875 C166.86552318 98.12618107 168.72751291 94.43385097 170.8125 90.25 C171.21919922 89.45722656 171.62589844 88.66445312 172.04492188 87.84765625 C173.04043801 85.90347179 174.02497244 83.9545175 175 82 C176.65 82 178.3 82 180 82 C180 92.23 180 102.46 180 113 C166.67410944 113.11296662 153.34853697 113.20469702 140.02227592 113.25906086 C133.83433109 113.28515294 127.64673087 113.32054507 121.45898438 113.37719727 C115.48729185 113.43152913 109.51593078 113.46142346 103.54401016 113.47438622 C101.26580716 113.48362384 98.98762227 113.50166284 96.70956039 113.52865028 C93.51805186 113.56495491 90.32791232 113.56994457 87.13623047 113.56762695 C86.19467606 113.58560333 85.25312164 113.60357971 84.28303528 113.62210083 C79.88815488 113.58757434 76.94220073 113.42200102 73.46026611 110.58442688 C71.47890575 108.5030744 69.86439321 106.70888601 68.4296875 104.2421875 C68.01420654 103.54343506 67.59872559 102.84468262 67.1706543 102.12475586 C66.52930542 101.01112671 66.52930542 101.01112671 65.875 99.875 C64.92201614 98.26867415 63.96753599 96.66323526 63.01171875 95.05859375 C62.52106934 94.22956543 62.03041992 93.40053711 61.52490234 92.54638672 C58.98177652 88.29970046 56.33645658 84.11870433 53.6875 79.9375 C53.20845215 79.17743652 52.7294043 78.41737305 52.23583984 77.63427734 C50.83329885 75.41670041 49.41719528 73.20823297 48 71 C47.47744629 70.16742676 46.95489258 69.33485352 46.41650391 68.47705078 C45.89362793 67.66091309 45.37075195 66.84477539 44.83203125 66.00390625 C44.36128174 65.26084229 43.89053223 64.51777832 43.40551758 63.75219727 C42.02538375 61.70726487 42.02538375 61.70726487 39 61 C37.43881572 60.93259135 35.8749748 60.91485544 34.3125 60.9375 C33.50425781 60.94652344 32.69601563 60.95554688 31.86328125 60.96484375 C31.24839844 60.97644531 30.63351563 60.98804688 30 61 C28.40459568 64.19080864 28.85817013 67.64498678 28.8671875 71.1484375 C28.86623077 71.95737457 28.86527405 72.76631165 28.86428833 73.59976196 C28.86360722 75.31292804 28.86545673 77.02609668 28.86962891 78.73925781 C28.8749643 81.35748124 28.86968879 83.97553203 28.86328125 86.59375 C28.86394232 88.25781288 28.86522407 89.92187565 28.8671875 91.5859375 C28.86516327 92.36834808 28.86313904 93.15075867 28.86105347 93.95687866 C28.86982683 99.06478908 28.86982683 99.06478908 30 104 C32.29847487 105.57314972 32.29847487 105.57314972 35.0625 106.75 C35.98160156 107.17796875 36.90070313 107.6059375 37.84765625 108.046875 C38.91306641 108.51867187 38.91306641 108.51867187 40 109 C40 110.32 40 111.64 40 113 C26.8 113 13.6 113 0 113 C0.33 111.35 0.66 109.7 1 108 C4.63 107.01 8.26 106.02 12 105 C12.76207174 99.59143708 13.14501509 94.3249269 13.12939453 88.85913086 C13.13114685 88.08892105 13.13289917 87.31871124 13.13470459 86.52516174 C13.13906929 84.00503213 13.13620451 81.48497395 13.1328125 78.96484375 C13.13348702 77.19942715 13.13445828 75.43401064 13.13571167 73.66859436 C13.13718129 69.97949331 13.13505752 66.29041657 13.13037109 62.60131836 C13.12467006 57.88503812 13.12795986 53.16881475 13.13394356 48.45253658 C13.13756546 44.81075109 13.13640317 41.16897897 13.13381577 37.52719307 C13.13315122 35.78854935 13.13395831 34.0499044 13.13629532 32.31126213 C13.13884911 29.87796711 13.13494318 27.44476291 13.12939453 25.01147461 C13.13243088 23.94598892 13.13243088 23.94598892 13.13552856 22.85897827 C13.11717544 18.49044317 12.85169984 14.28918746 12 10 C10.09243783 8.35249073 10.09243783 8.35249073 7.625 7.625 C6.43777344 7.18027344 6.43777344 7.18027344 5.2265625 6.7265625 C4.49179688 6.48679687 3.75703125 6.24703125 3 6 C2.01 5.67 1.02 5.34 0 5 C0 3.35 0 1.7 0 0 Z M29 9 C27.71305018 12.86084946 27.85712739 16.51233679 27.8671875 20.53515625 C27.86623077 21.36961777 27.86527405 22.20407928 27.86428833 23.06382751 C27.8636082 24.82648799 27.86545085 26.58915098 27.86962891 28.35180664 C27.87498625 31.05555822 27.86967483 33.75914418 27.86328125 36.46289062 C27.86394193 38.17447953 27.86522288 39.88606834 27.8671875 41.59765625 C27.86516327 42.40912613 27.86313904 43.22059601 27.86105347 44.05665588 C27.77581022 48.16017642 27.77581022 48.16017642 29 52 C32.16648655 52.08820927 35.33265092 52.1407905 38.5 52.1875 C39.386875 52.21263672 40.27375 52.23777344 41.1875 52.26367188 C47.87900134 52.3374752 53.56074491 51.68235339 59.0234375 47.421875 C63.77568104 41.54337721 65.45621833 35.88868386 65.25 28.3359375 C64.51597655 21.47740587 62.45156274 16.41316983 57 12 C52.69913378 9.06282307 49.14091051 7.87579824 43.9609375 7.8671875 C43.21585938 7.86589844 42.47078125 7.86460938 41.703125 7.86328125 C40.93484375 7.86714844 40.1665625 7.87101562 39.375 7.875 C38.59898437 7.87113281 37.82296875 7.86726563 37.0234375 7.86328125 C32.87930621 7.76840575 32.87930621 7.76840575 29 9 Z " fill="#11284B" transform="translate(128,34)"/>
<path d="M0 0 C3.33926306 -0.41056513 6.64335548 -0.12910171 10 0 C13.43302891 7.97214581 16.4784859 15.9936193 19.22265625 24.2265625 C19.6049942 25.36190933 19.98733215 26.49725616 20.3812561 27.66700745 C21.1932185 30.07836041 22.00355005 32.49026305 22.81234741 34.90267944 C24.07532794 38.66319511 25.34732977 42.42054046 26.62231445 46.17700195 C33.62991973 66.82856057 33.62991973 66.82856057 36.8006134 76.52960205 C37.84311144 79.70746345 38.90614141 82.87816266 39.974823 86.04730225 C40.44458032 87.4580024 40.9042557 88.87210573 41.35305786 90.28961182 C44.41031645 100.10059501 44.41031645 100.10059501 52.07055664 106.39794922 C56.17179383 107.67767223 59.5225414 106.58320734 63.375 105.0625 C65.1672072 104.08547812 65.1672072 104.08547812 66 102 C66.11416642 99.18380022 66.16785465 96.39176772 66.17700195 93.57470703 C66.18357315 92.7030188 66.19014435 91.83133057 66.19691467 90.93322754 C66.2166661 88.04142171 66.22831339 85.14966782 66.23828125 82.2578125 C66.24235678 81.27170864 66.2464323 80.28560478 66.25063133 79.26961899 C66.27149836 74.05198118 66.28579824 68.83436974 66.29516602 63.61669922 C66.30624138 58.22045717 66.34065251 52.82462625 66.38033772 47.42852974 C66.40644649 43.28501606 66.41485266 39.14160126 66.41844749 34.99801254 C66.42332708 33.00845432 66.43497986 31.0189009 66.45348549 29.02942276 C66.47775858 26.24730808 66.47693386 23.46626954 66.4699707 20.68408203 C66.48278076 19.86003876 66.49559082 19.03599548 66.50878906 18.1869812 C66.47557553 14.55232751 66.34779589 12.45453198 64.10441589 9.52267456 C62.00194674 8.00140859 60.20548789 7.06849596 57.75 6.25 C55.89375 5.63125 55.89375 5.63125 54 5 C54 3.35 54 1.7 54 0 C61.7738157 -0.05098645 69.54758776 -0.08585332 77.3215332 -0.10986328 C79.96250012 -0.11987979 82.60345606 -0.13349682 85.24438477 -0.15087891 C89.05487793 -0.17531897 92.86522361 -0.18652697 96.67578125 -0.1953125 C98.4280175 -0.21079636 98.4280175 -0.21079636 100.21565247 -0.22659302 C111.19862648 -0.22807393 121.61897154 0.21139351 130 8 C135.39798732 14.56431145 135.35955101 23.62968495 134.81640625 31.7421875 C133.70263121 39.11377072 130.59771662 45.31178614 124.55859375 49.82421875 C120.5080203 52.31734369 116.44067259 54.29813796 112 56 C112.6386039 59.7502165 114.32799442 62.25383683 116.46484375 65.3671875 C117.53472534 66.93388184 117.53472534 66.93388184 118.6262207 68.53222656 C119.39638569 69.6466651 120.1668169 70.76091969 120.9375 71.875 C121.71673121 73.00985692 122.49562036 74.14494878 123.27416992 75.28027344 C134.44538739 93.47942652 134.44538739 93.47942652 149.609375 107.69140625 C150.06828125 108.12324219 150.5271875 108.55507812 151 109 C151 110.32 151 111.64 151 113 C147.79197767 113.11698258 144.58450975 113.18750607 141.375 113.25 C140.47136719 113.28351563 139.56773437 113.31703125 138.63671875 113.3515625 C132.90195198 113.43528172 129.34983611 113.11131696 125 109 C122.86665615 106.06368098 121.08728232 102.9752952 119.3125 99.8125 C118.26547331 98.0076896 117.21594549 96.20432812 116.1640625 94.40234375 C115.63844727 93.49726074 115.11283203 92.59217773 114.57128906 91.65966797 C105.65359673 74.31066817 105.65359673 74.31066817 93 61 C91.29297265 60.93003986 89.58331997 60.91559846 87.875 60.9375 C86.96492187 60.94652344 86.05484375 60.95554688 85.1171875 60.96484375 C84.41851563 60.97644531 83.71984375 60.98804688 83 61 C82.87650884 66.92643599 82.78571228 72.85212529 82.7253418 78.77954102 C82.70017929 80.79627525 82.6660457 82.81291813 82.62280273 84.8293457 C82.56222675 87.7263032 82.53380831 90.62205661 82.51171875 93.51953125 C82.48591232 94.42274612 82.4601059 95.325961 82.43351746 96.25654602 C82.4324611 98.60794824 82.47425283 100.70805878 83 103 C85.20940931 105.11670234 85.20940931 105.11670234 88 106 C89.093125 106.556875 90.18625 107.11375 91.3125 107.6875 C92.199375 108.120625 93.08625 108.55375 94 109 C94 110.32 94 111.64 94 113 C68.26 113 42.52 113 16 113 C16 111.68 16 110.36 16 109 C17.7902061 108.32942113 19.58221489 107.6636531 21.375 107 C22.37273437 106.62875 23.37046875 106.2575 24.3984375 105.875 C27 105 27 105 29 105 C27.47968867 97.51721768 25.33346941 90.32922811 23 83.0625 C22.64421875 81.92748047 22.2884375 80.79246094 21.921875 79.62304688 C21.57640625 78.54216797 21.2309375 77.46128906 20.875 76.34765625 C20.56304688 75.36804932 20.25109375 74.38844238 19.9296875 73.37915039 C19.12945846 70.86195993 19.12945846 70.86195993 17 69 C12.45739722 68.59971582 7.9003336 68.6709935 3.34204102 68.68432617 C1.07454253 68.68748323 -1.1916476 68.6640424 -3.45898438 68.63867188 C-4.89843585 68.63639859 -6.33789084 68.63569552 -7.77734375 68.63671875 C-9.74562134 68.63224731 -9.74562134 68.63224731 -11.75366211 68.62768555 C-14.89788468 68.74661827 -14.89788468 68.74661827 -16.81005859 70.16210938 C-19.67318441 74.58427006 -21.00199458 79.85813558 -22.6875 84.8125 C-23.31108398 86.5769043 -23.31108398 86.5769043 -23.94726562 88.37695312 C-24.33978516 89.51712891 -24.73230469 90.65730469 -25.13671875 91.83203125 C-25.67365356 93.39014526 -25.67365356 93.39014526 -26.22143555 94.97973633 C-27.24961997 98.4485107 -27.24961997 98.4485107 -27 104 C-23.04 105.65 -19.08 107.3 -15 109 C-15 110.32 -15 111.64 -15 113 C-27.54 113 -40.08 113 -53 113 C-52.67 111.35 -52.34 109.7 -52 108 C-50.0900116 106.7442627 -50.0900116 106.7442627 -47.71557617 105.76757812 C-42.11235145 102.9093511 -40.64781216 99.46124969 -38.55078125 93.71875 C-38.1865657 92.79960815 -37.82235016 91.88046631 -37.44709778 90.93347168 C-36.67167336 88.97013387 -35.90902495 87.00170916 -35.15826416 85.02880859 C-34.01009611 82.02640088 -32.81902768 79.04512018 -31.61083984 76.06640625 C-29.53752343 70.95193629 -27.49221076 65.82692663 -25.45672607 60.69729614 C-23.28698039 55.23150905 -21.10658092 49.76997801 -18.92578125 44.30859375 C-18.50014893 43.24253403 -18.0745166 42.1764743 -17.63598633 41.07810974 C-14.09568621 32.22019129 -10.51386479 23.38036411 -6.875 14.5625 C-6.39699951 13.39847656 -5.91899902 12.23445313 -5.42651367 11.03515625 C-4.99443604 9.99359375 -4.5623584 8.95203125 -4.1171875 7.87890625 C-3.75222168 6.9979126 -3.38725586 6.11691895 -3.01123047 5.20922852 C-2 3 -2 3 0 0 Z M82 10 C81.81216438 13.07351935 81.74453078 16.05542478 81.76953125 19.12890625 C81.76998947 20.03374252 81.77044769 20.9385788 81.7709198 21.87083435 C81.7739433 23.78491527 81.7818325 25.69899369 81.79418945 27.61303711 C81.81244699 30.55396165 81.81469917 33.49457158 81.81445312 36.43554688 C81.81936814 38.29166941 81.82519638 40.14778979 81.83203125 42.00390625 C81.83314407 42.88929581 81.8342569 43.77468536 81.83540344 44.68690491 C81.46896956 48.66101494 81.46896956 48.66101494 83 52 C92.33088875 53.0049628 103.02880922 53.58198264 111.21484375 48.5 C114.78980187 45.49609646 116.51629407 42.45111778 118 38 C118.65057454 29.70250827 118.78540294 22.09181025 114 15 C109.21631543 9.95055518 103.55956258 8.04133618 96.7734375 7.74609375 C95.22414167 7.7152783 93.67457947 7.69590406 92.125 7.6875 C91.3628418 7.68202148 90.60068359 7.67654297 89.81542969 7.67089844 C85.43930493 7.57717385 85.43930493 7.57717385 82 10 Z M1 18 C-2.80218178 27.56901676 -6.49121045 37.17142093 -9.9375 46.875 C-10.39684937 48.14875488 -10.39684937 48.14875488 -10.86547852 49.44824219 C-11.14576904 50.24649414 -11.42605957 51.04474609 -11.71484375 51.8671875 C-11.96355225 52.56956543 -12.21226074 53.27194336 -12.46850586 53.99560547 C-13.17087116 56.29878629 -13.17087116 56.29878629 -13 60 C-3.76 60 5.48 60 15 60 C13.6891767 54.10129516 12.33242208 48.57426288 10.3984375 42.90234375 C10.1571109 42.1826088 9.9157843 41.46287384 9.66714478 40.72132874 C8.90737096 38.45858703 8.14131532 36.19803357 7.375 33.9375 C6.85374655 32.38881321 6.33290964 30.83998616 5.8125 29.29101562 C4.54646623 25.52570844 3.27480038 21.7623477 2 18 C1.67 18 1.34 18 1 18 Z " fill="#11284B" transform="translate(600,34)"/>
<path d="M0 0 C246.18 0 492.36 0 746 0 C746 2.97 746 5.94 746 9 C499.82 9 253.64 9 0 9 C0 6.03 0 3.06 0 0 Z " fill="#B3B5B8" transform="translate(4,162)"/>
<path d="M0 0 C1.28156982 0.00161133 2.56313965 0.00322266 3.88354492 0.00488281 C17.49752708 0.18078074 31.54081241 1.90530423 42.3125 11.0625 C45.64167415 14.78643305 46.05443587 18.47827689 45.875 23.375 C45.03909954 26.73740532 43.72553493 29.74790141 42.25 32.875 C41.73373047 34.08929688 41.73373047 34.08929688 41.20703125 35.328125 C40.2217165 37.49509029 39.27281888 39.44793238 37.875 41.375 C35.1015625 42.40625 35.1015625 42.40625 32.875 42.375 C32.58367187 41.529375 32.29234375 40.68375 31.9921875 39.8125 C28.21063455 29.34782518 24.61094628 22.0825406 14.625 16.62890625 C2.36379056 11.03821274 -12.41106464 10.49495919 -25.3125 14.28125 C-35.91578445 18.40474951 -42.62764142 24.77539378 -47.3671875 35.07421875 C-51.70843447 46.18083964 -52.48909046 57.22585366 -52.4375 69.0625 C-52.43476578 70.05453934 -52.43476578 70.05453934 -52.43197632 71.06661987 C-52.3379632 91.32721286 -48.97544886 110.4927645 -35 126.0625 C-24.68990011 135.89252872 -10.80094755 138.24419923 2.875 138.375 C9.98233934 137.88670951 16.4793983 137.32096823 21.875 132.375 C23.45398695 127.63803914 23.05947895 122.83556587 23.0625 117.875 C23.07474609 116.81667969 23.08699219 115.75835937 23.09960938 114.66796875 C23.10154297 113.65347656 23.10347656 112.63898438 23.10546875 111.59375 C23.10957764 110.66498047 23.11368652 109.73621094 23.11791992 108.77929688 C23.03800159 106.11223215 23.03800159 106.11223215 20.875 103.375 C18.97011425 102.41954265 18.97011425 102.41954265 16.7421875 101.76953125 C15.53369141 101.37797852 15.53369141 101.37797852 14.30078125 100.97851562 C13.03814453 100.58696289 13.03814453 100.58696289 11.75 100.1875 C10.90050781 99.91486328 10.05101563 99.64222656 9.17578125 99.36132812 C7.07835125 98.68967919 4.9782841 98.02803835 2.875 97.375 C2.875 95.395 2.875 93.415 2.875 91.375 C20.035 91.375 37.195 91.375 54.875 91.375 C54.875 93.355 54.875 95.335 54.875 97.375 C54.09181396 97.5913208 53.30862793 97.8076416 52.50170898 98.03051758 C48.89224107 99.41462086 46.62560461 100.63081328 43.875 103.375 C41.90360391 109.24790043 42.70260147 115.96605037 42.9375 122.0625 C42.99881401 124.63071546 43.04440885 127.1977227 43.06871033 129.76655579 C43.08767966 131.36076987 43.13010535 132.9549161 43.19850159 134.54777527 C43.314705 139.8564737 43.314705 139.8564737 41.25292969 142.2878418 C38.386683 143.59825211 35.69460337 144.30577826 32.60546875 144.9453125 C30.77725586 145.33009766 30.77725586 145.33009766 28.91210938 145.72265625 C27.00655273 146.10744141 27.00655273 146.10744141 25.0625 146.5 C23.80373047 146.76425781 22.54496094 147.02851563 21.24804688 147.30078125 C-1.49216004 152.02383951 -26.52316021 153.68218184 -47.23046875 141.3359375 C-62.2073019 131.18968886 -68.90399755 117.49451636 -73.125 100.375 C-74.27067229 93.45864866 -74.38187746 86.61632415 -74.42016602 79.62670898 C-74.43159522 78.18324917 -74.45190056 76.73982852 -74.48168945 75.29663086 C-74.92908418 53.52425387 -68.9348725 34.87389812 -54 18.6875 C-39.32433804 4.56850108 -19.74540136 -0.02574536 0 0 Z " fill="#11284B" transform="translate(74.125,-0.375)"/>
<path d="M0 0 C203.94 0 407.88 0 618 0 C618 1.98 618 3.96 618 6 C414.06 6 210.12 6 0 6 C0 4.02 0 2.04 0 0 Z " fill="#B3B5B8" transform="translate(132,1)"/>
<path d="M0 0 C2.5625 2.1875 2.5625 2.1875 4 5 C4.55099651 11.99341721 1.5553679 18.64129383 -1 25 C-2.32 25 -3.64 25 -5 25 C-5.35191406 24.20335938 -5.70382812 23.40671875 -6.06640625 22.5859375 C-9.87317522 14.41579626 -13.595442 8.68199684 -22 5 C-28.67450266 3.41751753 -35.79729648 3.53046268 -41.828125 7.07421875 C-45.14791823 9.62852568 -47.09523043 11.92853692 -48 16 C-48.60576012 21.55595606 -48.73294428 26.6692545 -45.39208984 31.37207031 C-38.88943976 38.97636192 -26.99152175 41.46929814 -17.8359375 44.61962891 C-8.20081084 47.95469661 0.32707151 51.07592178 5.9375 60.125 C9.50177132 69.76949886 9.0830459 80.59662157 5 90 C-0.15041492 100.03670599 -8.47657665 106.25744409 -19 110 C-31.30278262 113.49052704 -45.23844713 111.45812562 -56.43359375 105.76171875 C-60.12207478 103.63804785 -62.56438016 102.15050488 -64 98 C-64.5512707 92.2598938 -63.24176204 88.20744485 -61 83.0625 C-60.71382813 82.37865234 -60.42765625 81.69480469 -60.1328125 80.99023438 C-59.43291583 79.32214731 -58.71800007 77.66037517 -58 76 C-56.68 76 -55.36 76 -54 76 C-53.72027344 76.845625 -53.44054687 77.69125 -53.15234375 78.5625 C-49.966424 87.57732116 -46.60497742 94.87918777 -37.875 99.5 C-30.83685641 102.19494729 -22.41205688 102.44332582 -15.4375 99.4375 C-10.984183 96.79745342 -8.92783823 93.03428178 -7.421875 88.109375 C-6.11755213 81.58776066 -6.03539275 74.6854587 -9.60229492 68.89941406 C-15.37097758 61.06005143 -24.61802342 58.7593192 -33.5 56 C-53.9473466 49.6477252 -53.9473466 49.6477252 -58.9375 40.875 C-59.31777344 40.23304687 -59.69804687 39.59109375 -60.08984375 38.9296875 C-63.53979921 31.61518965 -62.87030318 22.6837635 -60.375 15.1875 C-56.63821605 6.15693878 -50.75637509 1.18177103 -42 -3 C-29.01435558 -8.05736664 -11.87715551 -7.97386496 0 0 Z " fill="#11284B" transform="translate(467,38)"/>
<path d="M0 0 C13.53 0 27.06 0 41 0 C41 1.65 41 3.3 41 5 C39.3767313 5.6708712 37.75132422 6.33657029 36.125 7 C35.22007812 7.37125 34.31515625 7.7425 33.3828125 8.125 C31 9 31 9 29 9 C32.34777546 19.78198694 37.66014376 29.65628057 42.75 39.6875 C43.64769579 41.46781651 44.5448359 43.24841333 45.44140625 45.02929688 C47.62120915 49.35612387 49.80850358 53.67908471 52 58 C55.89540863 53.13627876 58.51308228 47.53277159 61.36035156 42.0222168 C62.35764066 40.09602825 63.36589571 38.17587814 64.375 36.25585938 C70.53177109 24.47838418 70.53177109 24.47838418 75 12 C74.3340424 8.83409094 74.3340424 8.83409094 71.71484375 7.83203125 C70.79832031 7.49558594 69.88179688 7.15914062 68.9375 6.8125 C68.01839844 6.46832031 67.09929687 6.12414063 66.15234375 5.76953125 C65.44207031 5.51558594 64.73179687 5.26164062 64 5 C64 3.35 64 1.7 64 0 C75.88 0 87.76 0 100 0 C100 1.65 100 3.3 100 5 C99.41992188 5.268125 98.83984375 5.53625 98.2421875 5.8125 C97.07042969 6.4003125 97.07042969 6.4003125 95.875 7 C94.72644531 7.556875 94.72644531 7.556875 93.5546875 8.125 C85.83318313 13.79215917 81.77992976 23.44655841 77.3125 31.6875 C76.60884344 32.97748589 75.90498386 34.26736105 75.20092773 35.55712891 C73.4522861 38.76597178 71.71331253 41.97995113 69.97680664 45.19537354 C69.05700444 46.89468568 68.131236 48.59076454 67.20507812 50.28662109 C65.64568883 53.14320555 64.10112683 56.00719156 62.5625 58.875 C62.1085083 59.70475342 61.6545166 60.53450684 61.18676758 61.3894043 C56.73313245 69.80337837 56.8181707 77.76834731 56.8125 87.125 C56.79413086 88.73181641 56.79413086 88.73181641 56.77539062 90.37109375 C56.77345703 91.40621094 56.77152344 92.44132812 56.76953125 93.5078125 C56.76542236 94.44254395 56.76131348 95.37727539 56.75708008 96.34033203 C57.0263791 99.28881805 57.61942767 101.3812931 59 104 C62.31005037 105.7758544 62.31005037 105.7758544 66 107 C66.969375 107.391875 67.93875 107.78375 68.9375 108.1875 C69.618125 108.455625 70.29875 108.72375 71 109 C71 110.32 71 111.64 71 113 C56.48 113 41.96 113 27 113 C27.33 111.35 27.66 109.7 28 108 C28.69867188 107.80664062 29.39734375 107.61328125 30.1171875 107.4140625 C31.02726562 107.15367187 31.93734375 106.89328125 32.875 106.625 C33.77992188 106.36976563 34.68484375 106.11453125 35.6171875 105.8515625 C38.14569726 105.1395685 38.14569726 105.1395685 40 103 C41.13685451 97.41710301 41.18319199 91.86977089 41.1875 86.1875 C41.20586914 84.92969727 41.20586914 84.92969727 41.22460938 83.64648438 C41.22654297 82.80794922 41.22847656 81.96941406 41.23046875 81.10546875 C41.23457764 80.36449951 41.23868652 79.62353027 41.24291992 78.86010742 C40.50238514 70.14114765 37.97847687 63.07550708 34.01953125 55.3125 C33.52845383 54.32934814 33.0373764 53.34619629 32.53141785 52.33325195 C31.49569996 50.26647165 30.45412235 48.20261838 29.40698242 46.14160156 C27.82055191 43.01586464 26.2556513 39.88004653 24.69335938 36.7421875 C23.67834751 34.72332226 22.66211103 32.70507214 21.64453125 30.6875 C21.18383743 29.76428955 20.72314362 28.8410791 20.24848938 27.88989258 C15.17111006 17.9485777 10.57452985 9.55591989 0 5 C0 3.35 0 1.7 0 0 Z " fill="#11284B" transform="translate(306,34)"/>
<path d="M0 0 C0.84575089 0.00202423 1.69150177 0.00404846 2.56288147 0.00613403 C3.89205345 0.00350555 3.89205345 0.00350555 5.24807739 0.00082397 C8.19222442 -0.00359583 11.13631191 -0.0006561 14.08045959 0.00271606 C16.11687736 0.00204306 18.15329504 0.00107307 20.18971252 -0.00018311 C24.46368675 -0.00166025 28.73764013 0.00049502 33.01161194 0.00515747 C38.50329498 0.01085477 43.99492916 0.00757585 49.48661041 0.00158501 C53.69348014 -0.00202015 57.90033818 -0.00088223 62.10720825 0.0017128 C64.13271083 0.00238219 66.15821446 0.00155321 68.18371582 -0.00076675 C71.00935189 -0.00329254 73.83490766 0.00054626 76.66053772 0.00613403 C77.5062886 0.0041098 78.35203949 0.00208557 79.22341919 0 C84.99744719 0.02126616 84.99744719 0.02126616 86.11170959 1.13552856 C86.19919167 3.06220364 86.21868293 4.99204717 86.20936584 6.92068481 C86.20453186 8.67542114 86.20453186 8.67542114 86.19960022 10.46560669 C86.18703186 12.31315552 86.18703186 12.31315552 86.17420959 14.19802856 C86.16969788 15.43359497 86.16518616 16.66916138 86.16053772 17.94216919 C86.14870567 21.00666973 86.13222133 24.07107578 86.11170959 27.13552856 C84.13170959 27.13552856 82.15170959 27.13552856 80.11170959 27.13552856 C79.60381897 26.08752075 79.09592834 25.03951294 78.57264709 23.95974731 C77.87826726 22.58037116 77.1829025 21.20149052 76.48670959 19.82302856 C76.15542053 19.1327356 75.82413147 18.44244263 75.48280334 17.73123169 C75.14120178 17.06414185 74.79960022 16.397052 74.44764709 15.70974731 C74.14391174 15.09703979 73.84017639 14.48433228 73.52723694 13.85305786 C70.99037314 10.77495561 67.8047506 9.3150958 63.84087181 8.89467907 C61.2998296 8.84109004 58.77715479 8.87342212 56.23670959 8.94802856 C55.35756897 8.96156372 54.47842834 8.97509888 53.57264709 8.98904419 C51.41873408 9.02416234 49.26513956 9.07796162 47.11170959 9.13552856 C47.17285098 21.20956172 47.24990661 33.28337747 47.34742451 45.35717487 C47.39220026 50.96320987 47.43144044 56.56917097 47.45814514 62.17532349 C47.48410628 67.58302509 47.52445746 72.99044343 47.57489586 78.3979702 C47.59161333 80.46365022 47.60309711 82.52937929 47.6093235 84.59511757 C47.61891161 87.48299663 47.64690704 90.37014296 47.67933655 93.25784302 C47.67790146 94.11667587 47.67646637 94.97550873 47.67498779 95.86036682 C47.6031531 100.12913743 47.6031531 100.12913743 49.45425701 103.80574322 C51.85403516 105.73110135 54.3758797 106.41145258 57.29920959 107.32302856 C58.38588928 107.66720825 59.47256897 108.01138794 60.59217834 108.36599731 C61.42362366 108.61994263 62.25506897 108.87388794 63.11170959 109.13552856 C63.11170959 110.45552856 63.11170959 111.77552856 63.11170959 113.13552856 C47.93170959 113.13552856 32.75170959 113.13552856 17.11170959 113.13552856 C17.44170959 111.48552856 17.77170959 109.83552856 18.11170959 108.13552856 C19.39368225 107.73720825 19.39368225 107.73720825 20.70155334 107.33084106 C21.80627991 106.97763794 22.91100647 106.62443481 24.04920959 106.26052856 C25.15135803 105.91248169 26.25350647 105.56443481 27.38905334 105.20584106 C30.24049763 104.43528562 30.24049763 104.43528562 31.11170959 102.13552856 C31.23457114 99.20711311 31.29748104 96.30096458 31.31703186 93.37136841 C31.32693146 92.46399429 31.33683105 91.55662018 31.34703064 90.62174988 C31.37869568 87.61334876 31.40342284 84.60493183 31.42811584 81.59646606 C31.44868105 79.51423729 31.4696774 77.43201273 31.49108887 75.34979248 C31.54635429 69.86220712 31.59574384 64.3745838 31.64393616 58.88693237 C31.69411857 53.2900758 31.74982163 47.69327453 31.80506897 42.09646606 C31.91270522 31.1095341 32.01413803 20.12255419 32.11170959 9.13552856 C29.23613256 9.05414431 26.36288698 8.99485006 23.48670959 8.94802856 C22.67846741 8.92289185 21.87022522 8.89775513 21.03749084 8.87185669 C15.95110608 8.80982761 12.52353478 9.31242094 8.11170959 12.13552856 C6.26553841 14.13325086 6.26553841 14.13325086 4.92420959 16.44802856 C4.43307678 17.23693481 3.94194397 18.02584106 3.43592834 18.83865356 C1.86656274 21.56073904 0.42831819 24.28287661 -0.88829041 27.13552856 C-2.86829041 27.13552856 -4.84829041 27.13552856 -6.88829041 27.13552856 C-6.91715577 22.82304247 -6.93504295 18.51058095 -6.95079041 14.19802856 C-6.95916931 12.96632935 -6.96754822 11.73463013 -6.97618103 10.46560669 C-6.97940369 9.29578247 -6.98262634 8.12595825 -6.98594666 6.92068481 C-6.99118347 5.83666382 -6.99642029 4.75264282 -7.0018158 3.63577271 C-6.78540381 -1.13041042 -4.13687519 0.01523641 0 0 Z " fill="#11284B" transform="translate(482.88829040527344,33.864471435546875)"/>
<path d="M0 0 C1.98 0 3.96 0 6 0 C6.34933594 0.99902344 6.69867187 1.99804688 7.05859375 3.02734375 C7.51807919 4.33078205 7.97772279 5.6341646 8.4375 6.9375 C8.66759766 7.59685547 8.89769531 8.25621094 9.13476562 8.93554688 C10.11964592 12.22328622 10.11964592 12.22328622 12 15 C12.30292969 14.00097656 12.60585938 13.00195312 12.91796875 11.97265625 C13.34004373 10.66891352 13.76328163 9.36554688 14.1875 8.0625 C14.38408203 7.40314453 14.58066406 6.74378906 14.78320312 6.06445312 C15.41796875 4.16015625 15.41796875 4.16015625 17 1 C18.65 0.67 20.3 0.34 22 0 C22 7.92 22 15.84 22 24 C21.01 24 20.02 24 19 24 C18.505 17.565 18.505 17.565 18 11 C17.13375 13.9390625 17.13375 13.9390625 16.25 16.9375 C15.265625 20.27734375 15.265625 20.27734375 14 23 C11.859375 23.87890625 11.859375 23.87890625 10 24 C9.35309078 22.3962669 8.70751236 20.79199694 8.0625 19.1875 C7.70285156 18.29417969 7.34320312 17.40085937 6.97265625 16.48046875 C6.26386514 14.6729091 5.6139753 12.84192591 5 11 C4.67 15.29 4.34 19.58 4 24 C2.68 24 1.36 24 0 24 C0 16.08 0 8.16 0 0 Z " fill="#11284B" transform="translate(761,33)"/>
<path d="M0 0 C6.27 0 12.54 0 19 0 C19 1.32 19 2.64 19 4 C16.36 4 13.72 4 11 4 C11 10.6 11 17.2 11 24 C9.68 24 8.36 24 7 24 C7 17.4 7 10.8 7 4 C4.69 4 2.38 4 0 4 C0 2.68 0 1.36 0 0 Z " fill="#11284B" transform="translate(741,33)"/>
</svg>
