<svg width="147" height="25" viewBox="0 0 147 25" fill="none" xmlns="http://www.w3.org/2000/svg">
<g clip-path="url(#clip0_13289_108)">
<path d="M17.1751 15.0559C18.4722 14.3419 19.5026 13.3865 20.2648 12.1898C21.0271 10.9931 21.4089 9.6346 21.4089 8.11425C21.4089 6.59389 21.0551 5.30066 20.3505 4.16075C19.6444 3.02226 18.6603 2.12367 17.3969 1.46783C16.1335 0.811993 14.6596 0.484072 12.975 0.484072H0V4.97274H12.1566C12.8852 4.97274 13.5618 5.11044 14.1879 5.38726C14.814 5.66407 15.3039 6.05445 15.6562 6.56124C16.0086 7.06803 16.1855 7.65573 16.1855 8.32292C16.1855 8.99012 16.0198 9.62893 15.6899 10.1698C15.3601 10.7106 14.8982 11.1365 14.3072 11.4474C13.7148 11.7583 13.0663 11.913 12.3616 11.913H0V24.655H4.9511V16.1263H10.7641L16.6628 24.655L22.706 24.6891L16.2879 15.4775C16.5915 15.3539 16.8877 15.2127 17.1751 15.0545V15.0559ZM37.8344 0.484072L26.7362 24.655H31.8923L34.1158 19.8214H46.3019L48.5213 24.655H53.8823L42.8192 0.484072H37.8344ZM36.039 15.6422L38.5166 10.255C38.7441 9.74817 38.9602 9.25984 39.1652 8.78712C39.3701 8.31583 39.5695 7.84311 39.7632 7.37181C39.926 6.97433 40.0847 6.5655 40.2391 6.15099C40.3787 6.54204 40.5214 6.93196 40.6672 7.32071C40.8497 7.80478 41.0434 8.28176 41.247 8.75447C41.4519 9.22577 41.6569 9.69281 41.8618 10.1527L44.383 15.6436H36.0376L36.039 15.6422ZM80.7561 4.02305C79.6176 2.90727 78.2293 2.03708 76.5897 1.41673C74.9501 0.794958 73.0831 0.484072 70.9901 0.484072H59.2096V24.655H70.9901C73.0845 24.655 74.9501 24.3442 76.5897 23.7224C78.2293 23.1006 79.6176 22.2375 80.7561 21.1317C81.8945 20.0273 82.7593 18.7425 83.3517 17.2818C83.944 15.8197 84.2402 14.2496 84.2402 12.5688C84.2402 10.8881 83.944 9.35211 83.3517 7.88996C82.7593 6.4278 81.8945 5.13883 80.7561 4.02305ZM78.4342 15.435C78.1156 16.3335 77.6201 17.1214 76.9491 17.8C76.2781 18.4799 75.4358 19.0151 74.4223 19.4055C73.4087 19.7973 72.2085 19.9918 70.8202 19.9918H64.332V5.14451H70.8202C72.2085 5.14451 73.4101 5.34609 74.4223 5.74925C75.4358 6.1524 76.2781 6.69326 76.9491 7.37181C77.6201 8.05037 78.1156 8.83397 78.4342 9.71978C78.7529 10.6056 78.9129 11.5553 78.9129 12.5688C78.9129 13.5824 78.7529 14.5378 78.4342 15.435ZM97.3514 6.94168C98.1488 6.2972 99.036 5.80319 100.016 5.45682C100.994 5.11186 102.008 4.93867 103.055 4.93867C104.193 4.93867 105.229 5.07069 106.163 5.33615C107.096 5.60161 107.944 5.9636 108.707 6.42354C109.469 6.88348 110.181 7.40162 110.84 7.97797L113.879 3.97195C113.128 3.23519 112.201 2.57935 111.097 2.00301C109.992 1.42808 108.781 0.968145 107.46 0.621771C106.139 0.276816 104.775 0.103628 103.362 0.103628C101.427 0.103628 99.6227 0.403157 97.9495 1.00221C96.2762 1.60127 94.8078 2.46437 93.5444 3.59151C92.281 4.72006 91.297 6.03742 90.5909 7.545C89.8848 9.05258 89.5324 10.705 89.5324 12.5007C89.5324 14.2965 89.8792 16.034 90.574 17.5771C91.2675 19.1202 92.2417 20.4489 93.4939 21.5661C94.7461 22.6818 96.2088 23.5336 97.8821 24.1213C99.5554 24.7076 101.359 25.0014 103.294 25.0014C104.773 25.0014 106.195 24.8055 107.561 24.4151C108.927 24.0248 110.145 23.535 111.215 22.9473C112.285 22.361 113.127 21.7904 113.742 21.2381L111.318 17.164C110.748 17.6239 110.093 18.091 109.354 18.5623C108.614 19.0336 107.777 19.4254 106.844 19.7362C105.91 20.0471 104.874 20.2019 103.737 20.2019C102.6 20.2019 101.421 20.0358 100.339 19.7008C99.2564 19.3672 98.2948 18.8774 97.4525 18.2329C96.6103 17.5884 95.9505 16.7821 95.4718 15.8154C94.9931 14.8487 94.7545 13.7542 94.7545 12.5348C94.7545 11.3154 94.9875 10.2961 95.455 9.34075C95.921 8.38538 96.5527 7.58475 97.35 6.94026L97.3514 6.94168ZM145.958 7.56204C145.265 6.0431 144.285 4.71864 143.022 3.59151C141.758 2.46295 140.268 1.58282 138.548 0.949691C136.83 0.316564 134.935 0 132.863 0C130.791 0 128.931 0.316564 127.211 0.949691C125.493 1.58282 124.001 2.46295 122.737 3.59151C121.474 4.72006 120.495 6.0431 119.801 7.56204C119.107 9.08097 118.759 10.7277 118.759 12.4993C118.759 14.2709 119.1 15.9176 119.782 17.438C120.465 18.9569 121.444 20.2814 122.719 21.4085C123.994 22.5371 125.491 23.4172 127.21 24.0503C128.928 24.6834 130.812 25 132.861 25C134.911 25 136.828 24.6834 138.546 24.0503C140.265 23.4172 141.757 22.5371 143.02 21.4085C144.284 20.2814 145.262 18.9569 145.957 17.438C146.65 15.919 146.999 14.2723 146.999 12.4993C146.999 10.7263 146.65 9.08097 145.957 7.56204H145.958ZM141.143 15.5045C140.7 16.4258 140.079 17.2321 139.282 17.922C138.485 18.6134 137.54 19.1485 136.448 19.5276C135.356 19.908 134.16 20.0968 132.863 20.0968C131.566 20.0968 130.375 19.9066 129.294 19.5276C128.212 19.1485 127.269 18.619 126.46 17.9391C125.651 17.2605 125.037 16.4542 124.615 15.5215C124.194 14.5889 123.984 13.5824 123.984 12.4993C123.984 11.4162 124.194 10.3813 124.615 9.46142C125.037 8.54154 125.651 7.74658 126.46 7.07938C127.269 6.41219 128.212 5.88269 129.294 5.49089C130.375 5.09909 131.564 4.90319 132.863 4.90319C134.161 4.90319 135.356 5.09909 136.448 5.49089C137.54 5.88269 138.485 6.41786 139.282 7.09642C140.079 7.77497 140.7 8.57561 141.143 9.49549C141.587 10.4168 141.809 11.4176 141.809 12.4993C141.809 13.581 141.587 14.5832 141.143 15.5031V15.5045Z" fill="black"/>
</g>
<defs>
<clipPath id="clip0_13289_108">
<rect width="147" height="25" fill="white"/>
</clipPath>
</defs>
</svg>
