<svg width="1440" height="482" viewBox="0 0 1440 482" fill="none" xmlns="http://www.w3.org/2000/svg">
<g clip-path="url(#clip0_13308_17)">
<path d="M-168.73 119.516C34.3153 119.516 189.326 181.899 264.014 289.004V289.005C326.492 378.625 321.848 485.25 257.535 570.632L257.525 570.644L256.072 572.456L262.335 577.447L262.825 577.838L262.335 578.229L256.217 583.111L257.784 585.109L257.789 585.116C318.788 665.971 326.163 766.535 272.117 853.839L272.113 853.846L268.142 860.044L268.139 860.05C196.945 968.319 44.6911 1033.1 -156.26 1036.12H-156.264L-231.996 1036.76L-232.5 1036.76V601.647H-158.585C-95.3381 601.48 -50.3257 599.81 -16.8857 596.046C16.5461 592.283 38.38 586.43 55.2891 577.918L55.6084 577.746L51.9219 575.934C22.1425 562.17 -23.2302 556.046 -117.785 554.477V554.476L-147.671 554.139V554.138L-232.001 553.952L-232.5 553.951V119.516H-168.73ZM152.601 668.26L152.596 668.264C101.773 708.283 42.8196 725.242 -82.5762 729.836H-82.5791L-104.925 730.53V904.079L-93.042 903.044C22.2737 891.901 102.914 856.106 145.627 811.142C166.979 788.664 178.843 763.908 180.854 738.794C182.854 713.824 175.117 688.45 157.191 664.548L152.601 668.26ZM-104.925 425.219L-81.623 425.95H-81.6201C45.7901 430.656 104.208 447.978 155.583 489.678L156.795 490.667L156.796 490.668L157.159 490.968L159.088 488.365C176.558 463.902 183.562 438.06 180.596 412.771C177.628 387.475 164.679 362.681 142.148 340.338C97.0785 295.642 13.7143 260.806 -104.397 251.513V251.512L-104.925 251.476V425.219Z" stroke="#0C3054"/>
<path d="M1646.71 -635.484L1641.96 -635.473C1441.25 -634.507 1288.07 -572.264 1213.96 -465.996V-465.995C1151.49 -376.375 1156.13 -269.75 1220.44 -184.368L1220.45 -184.356L1221.91 -182.544L1215.64 -177.553L1215.15 -177.162L1215.64 -176.771L1221.76 -171.889L1220.19 -169.891L1220.19 -169.884H1220.19C1159.19 -89.0294 1151.82 11.5345 1205.86 98.8389L1205.87 98.8457L1209.84 105.044L1209.84 105.05C1281.03 213.319 1433.29 278.096 1634.24 281.121H1634.24L1709.97 281.757L1710.48 281.762V-153.353H1636.56C1573.32 -153.52 1528.3 -155.19 1494.86 -158.954C1461.43 -162.717 1439.6 -168.57 1422.69 -177.082L1422.37 -177.254L1426.06 -179.066C1455.84 -192.83 1501.21 -198.954 1595.76 -200.523V-200.524L1625.65 -200.861V-200.862L1709.98 -201.048L1710.48 -201.049V-635.484H1646.71ZM1325.38 -86.7402L1325.38 -86.7363C1376.21 -46.7174 1435.16 -29.7579 1560.55 -25.1641H1560.56L1582.9 -24.4697V149.079L1571.02 148.044C1455.7 136.901 1375.06 101.106 1332.35 56.1416C1311 33.6644 1299.14 8.90815 1297.12 -16.2061C1295.12 -41.1757 1302.86 -66.5502 1320.79 -90.4521L1325.38 -86.7402ZM1582.9 -329.781L1559.6 -329.05H1559.6C1432.19 -324.344 1373.77 -307.022 1322.4 -265.322L1321.18 -264.333L1321.18 -264.332L1320.82 -264.032L1318.89 -266.635C1301.42 -291.098 1294.42 -316.94 1297.38 -342.229C1300.35 -367.525 1313.3 -392.319 1335.83 -414.662C1380.9 -459.358 1464.26 -494.194 1582.38 -503.487V-503.488L1582.9 -503.524V-329.781Z" stroke="#0C3054"/>
</g>
<defs>
<clipPath id="clip0_13308_17">
<rect width="1440" height="482" fill="white"/>
</clipPath>
</defs>
</svg>
