<svg width="35" height="35" viewBox="0 0 35 35" fill="none" xmlns="http://www.w3.org/2000/svg">
<path d="M7.23149 4.64276C7.13727 4.53655 7.02291 4.4501 6.89503 4.38841C6.76715 4.32673 6.62829 4.29104 6.48652 4.28341C6.34474 4.27578 6.20286 4.29637 6.0691 4.34398C5.93534 4.39159 5.81236 4.46527 5.70729 4.56076C5.60222 4.65625 5.51714 4.77165 5.45699 4.90026C5.39685 5.02887 5.36282 5.16814 5.35689 5.30999C5.35097 5.45185 5.37326 5.59347 5.42247 5.72665C5.47168 5.85983 5.54683 5.98192 5.64357 6.08584L8.22395 8.92506C3.35288 11.9145 1.258 16.5227 1.16546 16.7319C1.10446 16.8691 1.07294 17.0176 1.07294 17.1678C1.07294 17.3179 1.10446 17.4664 1.16546 17.6037C1.2124 17.7096 2.34836 20.2283 4.87375 22.7537C8.2387 26.1173 12.4888 27.8957 17.1668 27.8957C19.5709 27.9094 21.9508 27.4144 24.1501 26.4432L27.1007 29.6901C27.1949 29.7963 27.3093 29.8828 27.4371 29.9445C27.565 30.0062 27.7039 30.0418 27.8456 30.0495C27.9874 30.0571 28.1293 30.0365 28.2631 29.9889C28.3968 29.9413 28.5198 29.8676 28.6249 29.7721C28.7299 29.6766 28.815 29.5612 28.8752 29.4326C28.9353 29.304 28.9693 29.1647 28.9753 29.0229C28.9812 28.881 28.9589 28.7394 28.9097 28.6062C28.8605 28.4731 28.7853 28.351 28.6886 28.247L7.23149 4.64276ZM13.5792 14.8141L19.1677 20.9632C18.3262 21.406 17.3614 21.5567 16.4249 21.3917C15.4884 21.2266 14.6332 20.7553 13.9936 20.0515C13.354 19.3478 12.9663 18.4516 12.8913 17.5036C12.8163 16.5557 13.0582 15.6096 13.5792 14.8141ZM17.1668 25.7498C13.0387 25.7498 9.43233 24.2491 6.44692 21.2905C5.22153 20.0727 4.17933 18.6835 3.35288 17.1664C3.98188 15.9876 5.98959 12.6883 9.70324 10.5438L12.1173 13.1926C11.1827 14.3896 10.7014 15.8784 10.7584 17.396C10.8154 18.9136 11.407 20.3621 12.4288 21.4856C13.4505 22.6091 14.8366 23.3353 16.3419 23.5356C17.8473 23.736 19.375 23.3978 20.6551 22.5807L22.6306 24.7533C20.8871 25.4222 19.0341 25.7602 17.1668 25.7498ZM17.9714 12.9512C17.6919 12.8978 17.4449 12.7356 17.285 12.5002C17.125 12.2648 17.0651 11.9755 17.1185 11.6959C17.1718 11.4163 17.3341 11.1694 17.5695 11.0094C17.8049 10.8494 18.0942 10.7896 18.3738 10.8429C19.7412 11.108 20.9863 11.8081 21.9234 12.8387C22.8605 13.8693 23.4392 15.1752 23.5734 16.5616C23.5999 16.8449 23.5128 17.1271 23.3312 17.3462C23.1496 17.5653 22.8884 17.7032 22.6051 17.7297C22.5716 17.7317 22.538 17.7317 22.5045 17.7297C22.2364 17.7309 21.9775 17.6316 21.7789 17.4513C21.5803 17.2711 21.4564 17.0231 21.4316 16.756C21.3413 15.8339 20.9558 14.9655 20.3324 14.2799C19.7089 13.5944 18.8809 13.1284 17.9714 12.9512ZM33.164 17.6037C33.1077 17.7297 31.7491 20.7379 28.6899 23.4779C28.5854 23.5745 28.4627 23.6493 28.329 23.6981C28.1952 23.7468 28.0531 23.7684 27.911 23.7617C27.7688 23.7549 27.6294 23.72 27.5008 23.6588C27.3723 23.5977 27.2572 23.5116 27.1623 23.4055C27.0674 23.2995 26.9945 23.1756 26.9479 23.0411C26.9013 22.9066 26.8819 22.7642 26.8909 22.6222C26.8999 22.4801 26.9371 22.3413 27.0003 22.2137C27.0635 22.0862 27.1514 21.9725 27.2589 21.8792C28.7597 20.5309 30.0205 18.9373 30.9873 17.1664C30.1591 15.648 29.1146 14.2579 27.8866 13.0397C24.9012 10.0838 21.2948 8.58307 17.1668 8.58307C16.297 8.58201 15.4285 8.65243 14.5703 8.79363C14.4307 8.81831 14.2876 8.81509 14.1493 8.78417C14.011 8.75324 13.8802 8.69521 13.7644 8.61344C13.6486 8.53166 13.5502 8.42776 13.4748 8.30773C13.3995 8.18771 13.3486 8.05393 13.3252 7.91414C13.3018 7.77435 13.3064 7.63131 13.3386 7.49328C13.3708 7.35525 13.43 7.22498 13.5129 7.10997C13.5957 6.99497 13.7005 6.89752 13.8213 6.82326C13.942 6.74899 14.0762 6.69938 14.2162 6.67729C15.1915 6.51626 16.1783 6.43597 17.1668 6.43722C21.8447 6.43722 26.0948 8.21559 29.4598 11.5805C31.9851 14.1059 33.1211 16.626 33.168 16.7319C33.229 16.8691 33.2606 17.0176 33.2606 17.1678C33.2606 17.3179 33.229 17.4664 33.168 17.6037H33.164Z" fill="white"/>
</svg>
