<svg width="35" height="35" viewBox="0 0 35 35" fill="none" xmlns="http://www.w3.org/2000/svg">
<path d="M10.7292 30.0418C10.7292 30.3264 10.6162 30.5993 10.415 30.8005C10.2138 31.0017 9.94087 31.1147 9.65631 31.1147H7.51047C6.94135 31.1147 6.39555 30.8886 5.99313 30.4862C5.5907 30.0838 5.36462 29.538 5.36462 28.9689V24.6772C5.36462 24.3926 5.47766 24.1197 5.67888 23.9185C5.88009 23.7173 6.15299 23.6043 6.43755 23.6043C6.7221 23.6043 6.995 23.7173 7.19622 23.9185C7.39743 24.1197 7.51047 24.3926 7.51047 24.6772V28.9689H9.65631C9.94087 28.9689 10.2138 29.0819 10.415 29.2831C10.6162 29.4843 10.7292 29.7572 10.7292 30.0418ZM28.9689 11.8021V18.2397C28.9689 18.5242 28.8559 18.7971 28.6547 18.9983C28.4534 19.1995 28.1805 19.3126 27.896 19.3126C27.6114 19.3126 27.3385 19.1995 27.1373 18.9983C26.9361 18.7971 26.8231 18.5242 26.8231 18.2397V12.875H20.3855C20.101 12.875 19.8281 12.762 19.6269 12.5608C19.4256 12.3596 19.3126 12.0867 19.3126 11.8021V5.36459H16.0938C15.8093 5.36459 15.5364 5.25155 15.3352 5.05034C15.134 4.84913 15.0209 4.57623 15.0209 4.29167C15.0209 4.00712 15.134 3.73421 15.3352 3.533C15.5364 3.33179 15.8093 3.21875 16.0938 3.21875H20.3855C20.5265 3.21864 20.666 3.2463 20.7963 3.30015C20.9265 3.35399 21.0449 3.43298 21.1446 3.53258L28.6551 11.043C28.7547 11.1427 28.8337 11.2611 28.8875 11.3914C28.9414 11.5216 28.969 11.6612 28.9689 11.8021ZM21.4585 10.7292H25.3062L21.4585 6.88144V10.7292ZM10.7292 3.21875H7.51047C6.94135 3.21875 6.39555 3.44483 5.99313 3.84725C5.5907 4.24968 5.36462 4.79548 5.36462 5.36459V8.58336C5.36462 8.86792 5.47766 9.14082 5.67888 9.34203C5.88009 9.54324 6.15299 9.65628 6.43755 9.65628C6.7221 9.65628 6.995 9.54324 7.19622 9.34203C7.39743 9.14082 7.51047 8.86792 7.51047 8.58336V5.36459H10.7292C11.0138 5.36459 11.2867 5.25155 11.4879 5.05034C11.6891 4.84913 11.8022 4.57623 11.8022 4.29167C11.8022 4.00712 11.6891 3.73421 11.4879 3.533C11.2867 3.33179 11.0138 3.21875 10.7292 3.21875ZM27.896 22.5313C27.6114 22.5313 27.3385 22.6444 27.1373 22.8456C26.9361 23.0468 26.8231 23.3197 26.8231 23.6043V28.9689H25.7501C25.4656 28.9689 25.1927 29.0819 24.9915 29.2831C24.7903 29.4843 24.6772 29.7572 24.6772 30.0418C24.6772 30.3264 24.7903 30.5993 24.9915 30.8005C25.1927 31.0017 25.4656 31.1147 25.7501 31.1147H26.8231C27.3922 31.1147 27.938 30.8886 28.3404 30.4862C28.7428 30.0838 28.9689 29.538 28.9689 28.9689V23.6043C28.9689 23.3197 28.8559 23.0468 28.6547 22.8456C28.4534 22.6444 28.1805 22.5313 27.896 22.5313ZM6.43755 20.3855C6.7221 20.3855 6.995 20.2725 7.19622 20.0712C7.39743 19.87 7.51047 19.5971 7.51047 19.3126V13.948C7.51047 13.6634 7.39743 13.3905 7.19622 13.1893C6.995 12.9881 6.7221 12.875 6.43755 12.875C6.15299 12.875 5.88009 12.9881 5.67888 13.1893C5.47766 13.3905 5.36462 13.6634 5.36462 13.948V19.3126C5.36462 19.5971 5.47766 19.87 5.67888 20.0712C5.88009 20.2725 6.15299 20.3855 6.43755 20.3855ZM20.3855 28.9689H15.0209C14.7364 28.9689 14.4635 29.0819 14.2622 29.2831C14.061 29.4843 13.948 29.7572 13.948 30.0418C13.948 30.3264 14.061 30.5993 14.2622 30.8005C14.4635 31.0017 14.7364 31.1147 15.0209 31.1147H20.3855C20.6701 31.1147 20.943 31.0017 21.1442 30.8005C21.3454 30.5993 21.4585 30.3264 21.4585 30.0418C21.4585 29.7572 21.3454 29.4843 21.1442 29.2831C20.943 29.0819 20.6701 28.9689 20.3855 28.9689Z" fill="white"/>
</svg>
