<svg width="1440" height="450" viewBox="0 0 1440 450" fill="none" xmlns="http://www.w3.org/2000/svg">
<g clip-path="url(#clip0_13449_331)">
<path d="M2148 1392.46V829.778L2038.52 829.536L1999.72 829.097C1876.96 827.06 1817.93 819.113 1779.13 801.175L1773.21 798.264L1774.74 797.443C1818.83 775.237 1888.47 766.996 2052.69 766.561H2148V203.001L2049.68 203.826C1788.91 207.751 1591.52 291.813 1499.26 432.11L1494.11 440.157C1424.09 553.257 1433.64 683.518 1512.67 788.28L1515.1 791.38L1506.66 798.119L1515.3 805.003L1513 807.865C1429.68 918.493 1423.66 1056.61 1504.61 1172.71C1601.39 1311.51 1802.37 1392.46 2065.86 1392.46H2148ZM1642.63 686.473C1548.09 561.304 1667.97 404.236 1967.55 375.291L1983.68 373.886V600.523L1954.04 601.445C1791.3 607.407 1714.93 629.416 1649.12 681.24L1642.58 686.525L1642.63 686.473ZM1983.68 995.622V1222.5L1982.3 1222.4C1675.47 1198.26 1548.71 1041.38 1639.77 913.888L1642.68 909.959L1643.68 910.784C1710.59 965.711 1786.14 988.497 1952.8 994.652L1983.73 995.622H1983.68Z" fill="#1E2932"/>
<path d="M1695 1439V876.311L1585.52 876.069L1546.72 875.631C1423.96 873.594 1364.93 865.647 1326.13 847.708L1320.21 844.797L1321.74 843.976C1365.83 821.77 1435.47 813.529 1599.69 813.095H1695V249.534L1596.68 250.359C1335.91 254.284 1138.52 338.346 1046.26 478.643L1041.11 486.691C971.092 599.79 980.638 730.051 1059.67 834.813L1062.1 837.913L1053.66 844.653L1062.3 851.537L1060 854.399C976.675 965.026 970.665 1103.14 1051.61 1219.25C1148.39 1358.04 1349.37 1439 1612.86 1439H1695ZM1189.63 733.006C1095.09 607.838 1214.97 450.769 1514.55 421.824L1530.68 420.419V647.056L1501.04 647.978C1338.3 653.94 1261.93 675.949 1196.12 727.773L1189.58 733.058L1189.63 733.006ZM1530.68 1042.16V1269.03L1529.3 1268.94C1222.47 1244.79 1095.71 1087.92 1186.77 960.421L1189.68 956.492L1190.68 957.317C1257.59 1012.24 1333.14 1035.03 1499.8 1041.19L1530.73 1042.16H1530.68Z" fill="#F25E53"/>
</g>
<defs>
<clipPath id="clip0_13449_331">
<rect width="1440" height="450" fill="white"/>
</clipPath>
</defs>
</svg>
