<svg width="1440" height="1362" viewBox="0 0 1440 1362" fill="none" xmlns="http://www.w3.org/2000/svg">
<g clip-path="url(#clip0_13414_10)">
<rect width="1440" height="1362" fill="white"/>
<path opacity="0.15" d="M-175.93 213V627.226L-95.3326 627.404L-66.7689 627.727C23.5954 629.227 67.0558 635.077 95.6197 648.283L99.9768 650.425L98.8522 651.03C66.3884 667.377 15.128 673.443 -105.767 673.764H-175.93V1088.63L-103.554 1088.03C88.4171 1085.14 233.73 1023.25 301.643 919.973L305.439 914.048C356.981 830.789 349.954 734.897 291.771 657.775L289.981 655.493L286.227 650.532L289.839 645.464L291.527 643.357C352.871 561.918 357.295 460.244 297.708 374.772C226.459 272.598 78.5093 213 -115.464 213H-175.93ZM196.102 732.721C265.701 824.865 177.446 940.492 -43.0888 961.8L-54.964 962.835V795.994L-33.1459 795.315C86.6604 790.926 142.875 774.724 191.325 736.574L196.138 732.683L196.102 732.721ZM-54.964 505.139V338.121L-53.945 338.193C171.929 355.965 265.244 471.45 198.209 565.308L196.067 568.201L195.331 567.593C146.071 527.158 90.4549 510.384 -32.2323 505.853L-54.999 505.139H-54.964Z" fill="#D9D9D9"/>
<path opacity="0.15" d="M1652.05 -130V284.226L1571.45 284.404L1542.89 284.727C1452.52 286.227 1409.06 292.077 1380.5 305.283L1376.14 307.425L1377.27 308.03C1409.73 324.377 1460.99 330.443 1581.88 330.764H1652.05V745.633L1579.67 745.026C1387.7 742.136 1242.39 680.253 1174.47 576.973L1170.68 571.048C1119.14 487.789 1126.16 391.897 1184.35 314.775L1186.14 312.493L1189.89 307.532L1186.28 302.464L1184.59 300.357C1123.25 218.918 1118.82 117.244 1178.41 31.7724C1249.66 -70.4017 1397.61 -130 1591.58 -130H1652.05ZM1280.02 389.721C1210.42 481.865 1298.67 597.492 1519.21 618.8L1531.08 619.835V452.994L1509.26 452.315C1389.46 447.926 1333.24 431.724 1284.79 393.574L1279.98 389.683L1280.02 389.721ZM1531.08 162.139V-4.87887L1530.06 -4.80744C1304.19 12.9649 1210.87 128.45 1277.91 222.308L1280.05 225.201L1280.79 224.593C1330.05 184.158 1385.66 167.384 1508.35 162.853L1531.12 162.139H1531.08Z" fill="#D9D9D9"/>
<g opacity="0.5" filter="url(#filter0_f_13414_10)">
<ellipse cx="1289" cy="315.5" rx="1289" ry="315.5" transform="matrix(-1 8.74228e-08 8.74228e-08 1 2011 -207.758)" fill="white"/>
</g>
<g opacity="0.1" filter="url(#filter1_f_13414_10)">
<path d="M1851.49 677.434C1902.42 867.497 1789.63 1062.86 1599.56 1113.78C1409.5 1164.71 1214.14 1051.92 1163.21 861.857C1112.28 671.795 1225.08 476.434 1415.14 425.506C1605.2 374.579 1800.56 487.371 1851.49 677.434Z" fill="white"/>
</g>
</g>
<defs>
<filter id="filter0_f_13414_10" x="-667" y="-307.758" width="2778" height="831" filterUnits="userSpaceOnUse" color-interpolation-filters="sRGB">
<feFlood flood-opacity="0" result="BackgroundImageFix"/>
<feBlend mode="normal" in="SourceGraphic" in2="BackgroundImageFix" result="shape"/>
<feGaussianBlur stdDeviation="50" result="effect1_foregroundBlur_13414_10"/>
</filter>
<filter id="filter1_f_13414_10" x="802.793" y="65.0881" width="1409.12" height="1409.11" filterUnits="userSpaceOnUse" color-interpolation-filters="sRGB">
<feFlood flood-opacity="0" result="BackgroundImageFix"/>
<feBlend mode="normal" in="SourceGraphic" in2="BackgroundImageFix" result="shape"/>
<feGaussianBlur stdDeviation="174.095" result="effect1_foregroundBlur_13414_10"/>
</filter>
<clipPath id="clip0_13414_10">
<rect width="1440" height="1362" fill="white"/>
</clipPath>
</defs>
</svg>
