<svg width="35" height="35" viewBox="0 0 35 35" fill="none" xmlns="http://www.w3.org/2000/svg">
<path d="M24.6772 3.21875H9.65634C9.08723 3.21875 8.54142 3.44483 8.139 3.84725C7.73658 4.24968 7.5105 4.79548 7.5105 5.36459V10.1927C7.51122 10.5257 7.5891 10.8541 7.73803 11.1519C7.88695 11.4497 8.10287 11.709 8.36884 11.9094L15.379 17.1667L8.36884 22.424C8.10287 22.6244 7.88695 22.8837 7.73803 23.1816C7.5891 23.4794 7.51122 23.8077 7.5105 24.1407V28.9689C7.5105 29.538 7.73658 30.0838 8.139 30.4862C8.54142 30.8886 9.08723 31.1147 9.65634 31.1147H24.6772C25.2464 31.1147 25.7922 30.8886 26.1946 30.4862C26.597 30.0838 26.8231 29.538 26.8231 28.9689V24.189C26.8223 23.8573 26.7451 23.5302 26.5974 23.2332C26.4497 22.9361 26.2355 22.6772 25.9715 22.4764L18.9465 17.1667L25.9715 11.8558C26.2356 11.6554 26.4499 11.3967 26.5977 11.0998C26.7454 10.803 26.8225 10.476 26.8231 10.1445V5.36459C26.8231 4.79548 26.597 4.24968 26.1946 3.84725C25.7922 3.44483 25.2464 3.21875 24.6772 3.21875ZM24.6772 5.36459V7.51044H9.65634V5.36459H24.6772ZM24.6772 28.9689H9.65634V24.1407L17.1668 18.5079L24.6772 24.1877V28.9689ZM17.1668 15.8256L9.65634 10.1927V9.65628H24.6772V10.1445L17.1668 15.8256Z" fill="white"/>
</svg>
